<svg id="visual" viewBox="0 0 900 600" width="900" height="600" xmlns="http://www.w3.org/2000/svg" xmlns:xlink="http://www.w3.org/1999/xlink" version="1.1"><path d="M0 439L21.5 425.2C43 411.3 86 383.7 128.8 378.5C171.7 373.3 214.3 390.7 257.2 403.7C300 416.7 343 425.3 385.8 420.7C428.7 416 471.3 398 514.2 387C557 376 600 372 642.8 374C685.7 376 728.3 384 771.2 392.2C814 400.3 857 408.7 878.5 412.8L900 417L900 601L878.5 601C857 601 814 601 771.2 601C728.3 601 685.7 601 642.8 601C600 601 557 601 514.2 601C471.3 601 428.7 601 385.8 601C343 601 300 601 257.2 601C214.3 601 171.7 601 128.8 601C86 601 43 601 21.5 601L0 601Z" fill="#fa7268"></path><path d="M0 409L21.5 420.2C43 431.3 86 453.7 128.8 457.8C171.7 462 214.3 448 257.2 440.8C300 433.7 343 433.3 385.8 440C428.7 446.7 471.3 460.3 514.2 454.2C557 448 600 422 642.8 412.3C685.7 402.7 728.3 409.3 771.2 410.8C814 412.3 857 408.7 878.5 406.8L900 405L900 601L878.5 601C857 601 814 601 771.2 601C728.3 601 685.7 601 642.8 601C600 601 557 601 514.2 601C471.3 601 428.7 601 385.8 601C343 601 300 601 257.2 601C214.3 601 171.7 601 128.8 601C86 601 43 601 21.5 601L0 601Z" fill="#ef5f67"></path><path d="M0 468L21.5 462.8C43 457.7 86 447.3 128.8 442.3C171.7 437.3 214.3 437.7 257.2 446.8C300 456 343 474 385.8 483C428.7 492 471.3 492 514.2 493C557 494 600 496 642.8 496.3C685.7 496.7 728.3 495.3 771.2 485.2C814 475 857 456 878.5 446.5L900 437L900 601L878.5 601C857 601 814 601 771.2 601C728.3 601 685.7 601 642.8 601C600 601 557 601 514.2 601C471.3 601 428.7 601 385.8 601C343 601 300 601 257.2 601C214.3 601 171.7 601 128.8 601C86 601 43 601 21.5 601L0 601Z" fill="#e34c67"></path><path d="M0 517L21.5 514.2C43 511.3 86 505.7 128.8 500.2C171.7 494.7 214.3 489.3 257.2 486.2C300 483 343 482 385.8 488.5C428.7 495 471.3 509 514.2 513.3C557 517.7 600 512.3 642.8 509.8C685.7 507.3 728.3 507.7 771.2 509C814 510.3 857 512.7 878.5 513.8L900 515L900 601L878.5 601C857 601 814 601 771.2 601C728.3 601 685.7 601 642.8 601C600 601 557 601 514.2 601C471.3 601 428.7 601 385.8 601C343 601 300 601 257.2 601C214.3 601 171.7 601 128.8 601C86 601 43 601 21.5 601L0 601Z" fill="#d53867"></path><path d="M0 539L21.5 541.5C43 544 86 549 128.8 553.2C171.7 557.3 214.3 560.7 257.2 560.5C300 560.3 343 556.7 385.8 550.3C428.7 544 471.3 535 514.2 533.5C557 532 600 538 642.8 541.7C685.7 545.3 728.3 546.7 771.2 548.5C814 550.3 857 552.7 878.5 553.8L900 555L900 601L878.5 601C857 601 814 601 771.2 601C728.3 601 685.7 601 642.8 601C600 601 557 601 514.2 601C471.3 601 428.7 601 385.8 601C343 601 300 601 257.2 601C214.3 601 171.7 601 128.8 601C86 601 43 601 21.5 601L0 601Z" fill="#c62368"></path></svg>